<svg xmlns="http://www.w3.org/2000/svg" viewBox="0 0 64 64" role="img" aria-labelledby="title desc">
  <title id="title">Smart Scheduling Assistant</title>
  <desc id="desc">A small nonhuman face with round bookworm glasses and freckles.</desc>
  <g fill="none" stroke="#000" stroke-linecap="round" stroke-linejoin="round">
    <path d="M7 21C7 12 17 8 32 8s25 4 25 13v22c0 10-10 16-25 16S7 53 7 43V21Z" fill="#fff" stroke-width="5"/>
    <circle cx="21" cy="30" r="8.5" stroke-width="4"/>
    <circle cx="43" cy="30" r="8.5" stroke-width="4"/>
    <path d="M29.5 27.5q2.5-2 5 0" stroke-width="3"/>
    <path d="M26 49q6 5 12 0" stroke-width="3.5"/>
  </g>
  <g fill="#000">
    <circle cx="21" cy="31" r="2.5"/>
    <circle cx="43" cy="31" r="2.5"/>
    <circle cx="17" cy="43" r="2.2"/>
    <circle cx="23" cy="44" r="2.2"/>
    <circle cx="41" cy="44" r="2.2"/>
    <circle cx="47" cy="43" r="2.2"/>
  </g>
</svg>
